<svg xmlns="http://www.w3.org/2000/svg" xmlns:xlink="http://www.w3.org/1999/xlink" viewBox="0 0 16 16" fill="#FFFFFF">
  <path d="M7 1L7 4.050781C6.414063 4.136719 5.875 4.375 5.421875 4.710938L3.257813 2.550781L2.550781 3.257813L4.710938 5.421875C4.367188 5.875 4.132813 6.410156 4.046875 7L1 7L1 8L4.046875 8C4.132813 8.589844 4.367188 9.125 4.710938 9.578125L2.550781 11.742188L3.257813 12.449219L5.421875 10.285156C5.875 10.625 6.414063 10.863281 7 10.949219L7 14L8 14L8 10.949219C8.585938 10.863281 9.125 10.625 9.578125 10.285156L11.742188 12.449219L12.449219 11.742188L10.285156 9.578125C10.632813 9.125 10.867188 8.589844 10.953125 8L14 8L14 7L10.953125 7C10.867188 6.410156 10.632813 5.875 10.285156 5.421875L12.449219 3.257813L11.742188 2.550781L9.578125 4.710938C9.125 4.375 8.585938 4.136719 8 4.050781L8 1 Z M 7.5 5C8.886719 5 10 6.113281 10 7.5C10 8.886719 8.886719 10 7.5 10C6.113281 10 5 8.886719 5 7.5C5 6.113281 6.113281 5 7.5 5Z" fill="#FFFFFF" />
</svg>